<?xml version="1.0" encoding="UTF-8" standalone="no"?>
<svg
   xmlns:dc="http://purl.org/dc/elements/1.1/"
   xmlns:cc="http://creativecommons.org/ns#"
   xmlns:rdf="http://www.w3.org/1999/02/22-rdf-syntax-ns#"
   xmlns:svg="http://www.w3.org/2000/svg"
   xmlns="http://www.w3.org/2000/svg"
   xmlns:sodipodi="http://sodipodi.sourceforge.net/DTD/sodipodi-0.dtd"
   xmlns:inkscape="http://www.inkscape.org/namespaces/inkscape"
   version="1.1"
   viewBox="0.0 0.0 960.0 720.0"
   fill="none"
   stroke="none"
   stroke-linecap="square"
   stroke-miterlimit="10"
   id="svg73"
   sodipodi:docname="punteros.svg"
   inkscape:version="0.92.4 (5da689c313, 2019-01-14)">
  <metadata
     id="metadata79">
    <rdf:RDF>
      <cc:Work
         rdf:about="">
        <dc:format>image/svg+xml</dc:format>
        <dc:type
           rdf:resource="http://purl.org/dc/dcmitype/StillImage" />
      </cc:Work>
    </rdf:RDF>
  </metadata>
  <defs
     id="defs77" />
  <sodipodi:namedview
     pagecolor="#ffffff"
     bordercolor="#666666"
     borderopacity="1"
     objecttolerance="10"
     gridtolerance="10"
     guidetolerance="10"
     inkscape:pageopacity="0"
     inkscape:pageshadow="2"
     inkscape:window-width="1366"
     inkscape:window-height="705"
     id="namedview75"
     showgrid="false"
     inkscape:zoom="0.92370266"
     inkscape:cx="426.37533"
     inkscape:cy="390.89711"
     inkscape:window-x="-8"
     inkscape:window-y="-8"
     inkscape:window-maximized="1"
     inkscape:current-layer="svg73" />
  <clipPath
     id="p.0">
    <path
       d="m0 0l960.0 0l0 720.0l-960.0 0l0 -720.0z"
       clip-rule="nonzero"
       id="path2" />
  </clipPath>
  <path
     style="fill:#000000;fill-opacity:0;fill-rule:evenodd"
     inkscape:connector-curvature="0"
     id="path5"
     d="M 0,0 H 960 V 720 H 0 Z" />
  <path
     style="fill:#000000;fill-rule:evenodd"
     inkscape:connector-curvature="0"
     id="path7"
     d="m 63.25197,0 h 690.7402 V 720 H 63.25197 Z" />
  <path
     style="fill-rule:evenodd;stroke:#000000;stroke-width:1;stroke-linecap:butt;stroke-linejoin:round"
     inkscape:connector-curvature="0"
     id="path9"
     d="m 63.25197,0 h 690.7402 V 720 H 63.25197 Z" />
  <path
     style="fill:#000000;fill-opacity:0;fill-rule:evenodd"
     inkscape:connector-curvature="0"
     id="path11"
     d="m 301.57874,54.80315 h 321.85828 v 61.03937 H 301.57874 Z" />
  <path
     style="fill-rule:evenodd;stroke:#ffff00;stroke-width:4;stroke-linecap:butt;stroke-linejoin:round"
     inkscape:connector-curvature="0"
     id="path13"
     d="m 301.57874,54.80315 h 321.85828 v 61.03937 H 301.57874 Z" />
  <path
     style="fill:#000000;fill-opacity:0;fill-rule:evenodd"
     inkscape:connector-curvature="0"
     id="path15"
     d="m 301.57874,115.84252 h 321.85828 v 61.03937 H 301.57874 Z" />
  <path
     style="fill-rule:evenodd;stroke:#ffff00;stroke-width:4;stroke-linecap:butt;stroke-linejoin:round"
     inkscape:connector-curvature="0"
     id="path17"
     d="m 301.57874,115.84252 h 321.85828 v 61.03937 H 301.57874 Z" />
  <path
     style="fill:#000000;fill-opacity:0;fill-rule:evenodd"
     inkscape:connector-curvature="0"
     id="path19"
     d="m 301.57874,176.8819 h 321.85828 v 61.03937 H 301.57874 Z" />
  <path
     style="fill-rule:evenodd;stroke:#ffff00;stroke-width:4;stroke-linecap:butt;stroke-linejoin:round"
     inkscape:connector-curvature="0"
     id="path21"
     d="m 301.57874,176.8819 h 321.85828 v 61.03937 H 301.57874 Z" />
  <path
     style="fill:#d9d9d9;fill-rule:nonzero;stroke-width:1.8072685"
     inkscape:connector-curvature="0"
     id="path23"
     d="m 417.44181,219.12672 v -24.48456 h 4.5667 v 13.00115 l 5.34641,-6.24284 h 5.59698 l -5.87546,6.47194 6.29317,11.25431 h -4.90087 l -4.34394,-7.96106 -2.11629,2.29095 v 5.67011 z m 26.89284,-13.63116 v -4.29554 h 16.62392 v 4.29554 z m 0,7.41695 v -4.32418 h 16.62392 v 4.32418 z m 44.08014,1.86139 v 4.35282 h -15.98347 q 0.2506,-2.46278 1.53149,-4.66782 1.30877,-2.23368 5.1515,-5.87057 3.09087,-2.97822 3.78701,-4.00917 0.94676,-1.46048 0.94676,-2.89232 0,-1.5464 -0.83537,-2.37687 -0.80753,-0.8591 -2.25552,-0.8591 -1.42012,0 -2.28335,0.88774 -0.83537,0.85911 -0.97459,2.92097 l -4.53887,-0.45819 q 0.41769,-3.86598 2.53396,-5.55555 2.14413,-1.68958 5.37423,-1.68958 3.50858,0 5.51348,1.94731 2.03274,1.9473 2.03274,4.86827 0,1.63229 -0.58476,3.15005 -0.55692,1.48912 -1.80997,3.12142 -0.83537,1.0882 -3.00735,3.12144 -2.14414,2.03322 -2.72888,2.72048 -0.55693,0.65867 -0.91892,1.28867 z m 3.14783,-1.94729 4.53886,-0.48685 q 0.19492,1.60366 1.14168,2.52005 0.9746,0.91638 2.22768,0.91638 1.42011,0 2.39472,-1.1741 1.00246,-1.20275 1.00246,-3.60824 0,-2.26234 -0.97462,-3.37917 -0.9746,-1.11685 -2.56182,-1.11685 -1.9492,0 -3.50856,1.7755 l -3.70348,-0.5441 2.33905,-12.74343 h 12.05722 v 4.38147 h -8.60435 l -0.72399,4.15234 q 1.53152,-0.7732 3.11874,-0.7732 3.03517,0 5.15145,2.29096 2.11629,2.26229 2.11629,5.87055 0,3.0355 -1.69859,5.38374 -2.33905,3.2646 -6.46022,3.2646 -3.28581,0 -5.37424,-1.83276 -2.06058,-1.83276 -2.47828,-4.89689 z" />
  <path
     style="fill:#000000;fill-opacity:0;fill-rule:evenodd"
     inkscape:connector-curvature="0"
     id="path25"
     d="m 301.57874,237.92126 h 321.85828 v 61.03937 H 301.57874 Z" />
  <path
     style="fill-rule:evenodd;stroke:#ffff00;stroke-width:4;stroke-linecap:butt;stroke-linejoin:round"
     inkscape:connector-curvature="0"
     id="path27"
     d="m 301.57874,237.92126 h 321.85828 v 61.03937 H 301.57874 Z" />
  <path
     style="fill:#000000;fill-opacity:0;fill-rule:evenodd"
     inkscape:connector-curvature="0"
     id="path29"
     d="M 301.57874,298.96063 H 623.43702 V 421.03936 H 301.57874 Z" />
  <path
     style="fill-rule:evenodd;stroke:#ffff00;stroke-width:4;stroke-linecap:butt;stroke-linejoin:round"
     inkscape:connector-curvature="0"
     id="path31"
     d="M 301.57874,298.96063 H 623.43702 V 421.03936 H 301.57874 Z" />
  <path
     style="fill:#000000;fill-opacity:0;fill-rule:evenodd"
     inkscape:connector-curvature="0"
     id="path33"
     d="m 301.57874,421.03937 h 321.85828 v 61.03937 H 301.57874 Z" />
  <path
     style="fill-rule:evenodd;stroke:#ffff00;stroke-width:4;stroke-linecap:butt;stroke-linejoin:round"
     inkscape:connector-curvature="0"
     id="path35"
     d="m 301.57874,421.03937 h 321.85828 v 61.03937 H 301.57874 Z" />
  <path
     style="fill:#000000;fill-opacity:0;fill-rule:evenodd"
     inkscape:connector-curvature="0"
     id="path37"
     d="m 301.57874,482.07874 h 321.85828 v 61.03937 H 301.57874 Z" />
  <path
     style="fill-rule:evenodd;stroke:#ffff00;stroke-width:4;stroke-linecap:butt;stroke-linejoin:round"
     inkscape:connector-curvature="0"
     id="path39"
     d="m 301.57874,482.07874 h 321.85828 v 61.03937 H 301.57874 Z" />
  <path
     style="fill:#d9d9d9;fill-rule:nonzero;stroke-width:1.79365849"
     inkscape:connector-curvature="0"
     id="path41"
     d="m 398.84874,524.41135 v -3.58732 l 6.50201,-7.45489 q 1.59747,-1.82169 2.35418,-2.60642 -0.78473,0.056 -2.10195,0.0841 l -6.10965,0.028 v -3.81152 h 14.32125 v 3.25101 l -6.61412,7.65108 -2.35417,2.52233 q 1.93377,-0.1121 2.38219,-0.1121 h 7.11858 v 4.03573 z m 26.86929,-13.34034 v -4.20388 h 16.73148 v 4.20388 z m 0,7.25871 v -4.23191 h 16.73148 v 4.23191 z m 36.63015,-17.9646 q 3.47521,0 5.43703,2.46628 2.32616,2.94271 2.32616,9.75301 0,6.81029 -2.35418,9.78104 -1.9338,2.46628 -5.40901,2.46628 -3.50323,0 -5.66123,-2.69049 -2.12997,-2.69049 -2.12997,-9.58486 0,-6.78227 2.35417,-9.75302 1.9338,-2.43824 5.43703,-2.43824 z m 0,3.81152 q -0.84078,0 -1.5134,0.53248 -0.64459,0.5325 -1.00893,1.90577 -0.44842,1.76564 -0.44842,5.96952 0,4.23191 0.4204,5.80136 0.42038,1.56945 1.06499,2.10195 0.64458,0.53249 1.48536,0.53249 0.81276,0 1.45735,-0.53249 0.67262,-0.5325 1.03697,-1.90576 0.47643,-1.76564 0.47643,-5.99755 0,-4.20388 -0.44842,-5.77333 -0.42038,-1.56946 -1.06498,-2.10196 -0.64459,-0.53248 -1.45735,-0.53248 z m 18.61046,-3.81152 q 3.47522,0 5.43703,2.46628 2.32616,2.94271 2.32616,9.75301 0,6.81029 -2.35418,9.78104 -1.93379,2.46628 -5.40901,2.46628 -3.50323,0 -5.66123,-2.69049 -2.12997,-2.69049 -2.12997,-9.58486 0,-6.78227 2.35418,-9.75302 1.93379,-2.43824 5.43702,-2.43824 z m 0,3.81152 q -0.84077,0 -1.5134,0.53248 -0.64458,0.5325 -1.00893,1.90577 -0.44841,1.76564 -0.44841,5.96952 0,4.23191 0.42039,5.80136 0.42038,1.56945 1.06499,2.10195 0.64459,0.53249 1.48536,0.53249 0.81276,0 1.45735,-0.53249 0.67262,-0.5325 1.03697,-1.90576 0.47643,-1.76564 0.47643,-5.99755 0,-4.20388 -0.44841,-5.77333 -0.42038,-1.56946 -1.06499,-2.10196 -0.64459,-0.53248 -1.45735,-0.53248 z m 18.61054,-3.81152 q 3.47521,0 5.43703,2.46628 2.32614,2.94271 2.32614,9.75301 0,6.81029 -2.35418,9.78104 -1.93378,2.46628 -5.40899,2.46628 -3.50325,0 -5.66124,-2.69049 -2.12997,-2.69049 -2.12997,-9.58486 0,-6.78227 2.35418,-9.75302 1.93378,-2.43824 5.43703,-2.43824 z m 0,3.81152 q -0.84078,0 -1.5134,0.53248 -0.64461,0.5325 -1.00893,1.90577 -0.44842,1.76564 -0.44842,5.96952 0,4.23191 0.42038,5.80136 0.4204,1.56945 1.06499,2.10195 0.6446,0.53249 1.48538,0.53249 0.81274,0 1.45735,-0.53249 0.67262,-0.5325 1.03695,-1.90576 0.47645,-1.76564 0.47645,-5.99755 0,-4.20388 -0.44842,-5.77333 -0.4204,-1.56946 -1.06498,-2.10196 -0.64461,-0.53248 -1.45735,-0.53248 z m 10.67912,13.87282 4.42809,-0.53248 q 0.22421,1.70957 1.14907,2.6064 0.95289,0.89683 2.27009,0.89683 1.4013,0 2.38222,-1.06499 0.98089,-1.093 0.98089,-2.94271 0,-1.70959 -0.95288,-2.71852 -0.92484,-1.03695 -2.24207,-1.03695 -0.89683,0 -2.12997,0.36432 l 0.50447,-3.75547 q 1.87774,0.056 2.85864,-0.78472 0.98092,-0.8688 0.98092,-2.29813 0,-1.2051 -0.72868,-1.93378 -0.70065,-0.72867 -1.90576,-0.72867 -1.17709,0 -2.01787,0.84078 -0.81276,0.81274 -1.00893,2.38219 l -4.23192,-0.72867 q 0.44841,-2.15799 1.31723,-3.44718 0.89683,-1.31723 2.49429,-2.0459 1.59749,-0.75669 3.58732,-0.75669 3.36311,0 5.40901,2.15798 1.68156,1.76564 1.68156,3.97968 0,3.16694 -3.4472,5.04467 2.07392,0.42039 3.30706,1.96181 1.23314,1.54143 1.23314,3.69942 0,3.16694 -2.32614,5.40901 -2.29813,2.21404 -5.71729,2.21404 -3.25101,0 -5.40901,-1.87773 -2.12997,-1.87774 -2.46628,-4.90454 z" />
  <path
     style="fill:#000000;fill-opacity:0;fill-rule:evenodd"
     inkscape:connector-curvature="0"
     id="path43"
     d="m 301.57874,543.1181 h 321.85828 v 61.03937 H 301.57874 Z" />
  <path
     style="fill-rule:evenodd;stroke:#ffff00;stroke-width:4;stroke-linecap:butt;stroke-linejoin:round"
     inkscape:connector-curvature="0"
     id="path45"
     d="m 301.57874,543.1181 h 321.85828 v 61.03937 H 301.57874 Z" />
  <path
     style="fill:#000000;fill-opacity:0;fill-rule:evenodd"
     inkscape:connector-curvature="0"
     id="path47"
     d="m 301.57874,604.1575 h 321.85828 v 61.03937 H 301.57874 Z" />
  <path
     style="fill-rule:evenodd;stroke:#ffff00;stroke-width:4;stroke-linecap:butt;stroke-linejoin:round"
     inkscape:connector-curvature="0"
     id="path49"
     d="m 301.57874,604.1575 h 321.85828 v 61.03937 H 301.57874 Z" />
  <path
     style="fill:#000000;fill-opacity:0;fill-rule:evenodd"
     inkscape:connector-curvature="0"
     id="path51"
     d="M 301.57874,512.59845 H 127.50788 V 207.40158 h 174.13385" />
  <path
     style="fill-rule:evenodd;stroke:#ff9900;stroke-width:3.35035777;stroke-linecap:butt;stroke-linejoin:round;stroke-dasharray:3.35035776, 10.05107327"
     inkscape:connector-curvature="0"
     id="path53"
     d="M 301.71404,512.47494 H 84.435122 V 207.52509 H 279.32468" />
  <path
     style="fill:#ff9900;fill-rule:evenodd;stroke:#ff9900;stroke-width:3;stroke-linecap:butt"
     inkscape:connector-curvature="0"
     id="path55"
     d="m 283.64172,212.35677 13.61429,-4.95519 -13.61429,-4.95519 z" />
  <path
     style="fill:#000000;fill-opacity:0;fill-rule:evenodd"
     inkscape:connector-curvature="0"
     id="path57"
     d="m 464.24277,315.25986 v 82.89761" />
  <path
     style="fill-rule:evenodd;stroke:#ffff00;stroke-width:4;stroke-linecap:butt;stroke-linejoin:round;stroke-dasharray:4, 12"
     inkscape:connector-curvature="0"
     id="path59"
     d="m 464.24277,315.25986 v 82.89761" />
  <path
     style="fill:#000000;fill-opacity:0;fill-rule:evenodd"
     inkscape:connector-curvature="0"
     id="path61"
     d="m 642.50867,191.40158 h 111.49609 v 32 H 642.50867 Z" />
  <path
     style="fill:#d9d9d9;fill-rule:nonzero;stroke-width:1.79365849"
     inkscape:connector-curvature="0"
     id="path63"
     d="m 660.08112,195.16828 q 3.47522,0 5.43703,2.46628 2.32616,2.94271 2.32616,9.75301 0,6.81029 -2.35418,9.78104 -1.93379,2.46628 -5.40901,2.46628 -3.50323,0 -5.66123,-2.69049 -2.12997,-2.69049 -2.12997,-9.58486 0,-6.78227 2.35418,-9.75302 1.93379,-2.43824 5.43702,-2.43824 z m 0,3.81152 q -0.84077,0 -1.5134,0.53248 -0.64458,0.5325 -1.00893,1.90577 -0.44841,1.76564 -0.44841,5.96952 0,4.23191 0.4204,5.80136 0.42037,1.56945 1.06498,2.10195 0.64459,0.53249 1.48536,0.53249 0.81276,0 1.45735,-0.53249 0.67262,-0.5325 1.03697,-1.90576 0.47643,-1.76564 0.47643,-5.99755 0,-4.20388 -0.44841,-5.77333 -0.42038,-1.56946 -1.06499,-2.10196 -0.64459,-0.53248 -1.45735,-0.53248 z m 18.61052,-3.81152 q 3.47521,0 5.43703,2.46628 2.32616,2.94271 2.32616,9.75301 0,6.81029 -2.35418,9.78104 -1.9338,2.46628 -5.40901,2.46628 -3.50323,0 -5.66123,-2.69049 -2.12997,-2.69049 -2.12997,-9.58486 0,-6.78227 2.35417,-9.75302 1.9338,-2.43824 5.43703,-2.43824 z m 0,3.81152 q -0.84078,0 -1.5134,0.53248 -0.64459,0.5325 -1.00893,1.90577 -0.44842,1.76564 -0.44842,5.96952 0,4.23191 0.4204,5.80136 0.42038,1.56945 1.06499,2.10195 0.64458,0.53249 1.48536,0.53249 0.81276,0 1.45735,-0.53249 0.67262,-0.5325 1.03697,-1.90576 0.47643,-1.76564 0.47643,-5.99755 0,-4.20388 -0.44842,-5.77333 -0.42038,-1.56946 -1.06498,-2.10196 -0.64459,-0.53248 -1.45735,-0.53248 z m 18.61052,-3.81152 q 3.47521,0 5.43703,2.46628 2.32616,2.94271 2.32616,9.75301 0,6.81029 -2.35418,9.78104 -1.9338,2.46628 -5.40901,2.46628 -3.50323,0 -5.66124,-2.69049 -2.12997,-2.69049 -2.12997,-9.58486 0,-6.78227 2.35418,-9.75302 1.9338,-2.43824 5.43703,-2.43824 z m 0,3.81152 q -0.84078,0 -1.5134,0.53248 -0.64459,0.5325 -1.00893,1.90577 -0.44842,1.76564 -0.44842,5.96952 0,4.23191 0.4204,5.80136 0.42038,1.56945 1.06498,2.10195 0.64459,0.53249 1.48537,0.53249 0.81276,0 1.45735,-0.53249 0.67262,-0.5325 1.03696,-1.90576 0.47643,-1.76564 0.47643,-5.99755 0,-4.20388 -0.44841,-5.77333 -0.42038,-1.56946 -1.06498,-2.10196 -0.64459,-0.53248 -1.45735,-0.53248 z m 10.67919,13.87282 4.42809,-0.53248 q 0.22421,1.70957 1.14908,2.6064 0.95288,0.89683 2.27009,0.89683 1.40129,0 2.38221,-1.06499 0.9809,-1.093 0.9809,-2.94271 0,-1.70959 -0.95289,-2.71852 -0.92484,-1.03695 -2.24207,-1.03695 -0.89683,0 -2.12997,0.36432 l 0.50447,-3.75547 q 1.87774,0.056 2.85864,-0.78472 0.98092,-0.8688 0.98092,-2.29813 0,-1.2051 -0.72868,-1.93378 -0.70065,-0.72867 -1.90576,-0.72867 -1.17709,0 -2.01786,0.84078 -0.81276,0.81274 -1.00894,2.38219 l -4.23192,-0.72867 q 0.44842,-2.15799 1.31723,-3.44718 0.89683,-1.31723 2.49429,-2.0459 1.59749,-0.75669 3.58732,-0.75669 3.36311,0 5.40901,2.15798 1.68156,1.76564 1.68156,3.97968 0,3.16694 -3.4472,5.04467 2.07392,0.42039 3.30706,1.96181 1.23314,1.54143 1.23314,3.69942 0,3.16694 -2.32614,5.40901 -2.29813,2.21404 -5.71729,2.21404 -3.25101,0 -5.40901,-1.87773 -2.12997,-1.87774 -2.46628,-4.90454 z" />
  <path
     style="fill:#000000;fill-opacity:0;fill-rule:evenodd"
     inkscape:connector-curvature="0"
     id="path65"
     d="m 132.03937,335.40158 h 165.07086 v 32 H 132.03937 Z" />
  <path
     style="fill:#d9d9d9;fill-rule:nonzero;stroke-width:1.46645796"
     inkscape:connector-curvature="0"
     id="path67"
     d="m 94.388635,342.81686 h -3.734897 v -2.70378 q 0,-1.62685 0.274956,-2.5663 0.297889,-0.93947 1.054026,-1.67269 0.779055,-0.75612 1.993478,-1.19149 l 0.733219,1.55811 q -1.122757,0.3666 -1.626859,1.03111 -0.48118,0.66448 -0.504087,1.78724 h 1.810164 z m 2.285167,11.64001 v -2.9329 l 5.315908,-6.09497 q 1.30609,-1.48938 1.92476,-2.13097 -0.6416,0.0458 -1.71851,0.0688 l -4.995132,0.0229 v -3.11623 h 11.708752 v 2.65796 l -5.40757,6.25537 -1.92471,2.06219 q 1.581,-0.0917 1.94764,-0.0917 h 5.82 v 3.29952 z m 15.099958,-19.88883 h 3.73488 v 2.68085 q 0,1.62686 -0.27497,2.58923 -0.27496,0.93943 -1.05401,1.69561 -0.77905,0.73322 -1.99346,1.16858 l -0.73323,-1.55812 q 1.14566,-0.36664 1.62683,-1.0082 0.48122,-0.66448 0.5041,-1.81017 h -1.81014 z m 16.5789,10.03608 -3.41409,-0.61868 q 0.59573,-2.06221 1.99345,-3.04747 1.39772,-0.98529 4.17024,-0.98529 2.49757,0 3.73489,0.59576 1.23733,0.59575 1.71851,1.51228 0.5041,0.91653 0.5041,3.34535 l -0.0229,4.39937 q 0,1.85599 0.1604,2.7496 0.1833,0.89364 0.68739,1.90183 h -3.71195 q -0.16039,-0.36661 -0.36663,-1.09984 -0.0916,-0.34372 -0.13741,-0.45828 -0.96235,0.93946 -2.0622,1.42065 -1.07694,0.45827 -2.33718,0.45827 -2.17676,0 -3.437,-1.1915 -1.26023,-1.19152 -1.26023,-3.00167 0,-1.2144 0.57284,-2.15386 0.57284,-0.93943 1.60392,-1.42062 1.03113,-0.50411 2.97876,-0.89362 2.63504,-0.48119 3.64323,-0.91653 v -0.36663 q 0,-1.09983 -0.52701,-1.55811 -0.527,-0.45827 -2.01639,-0.45827 -1.00819,0 -1.58101,0.41246 -0.54993,0.38951 -0.89364,1.3748 z m 5.01803,3.04746 q -0.71032,0.22914 -2.29133,0.57286 -1.55811,0.32079 -2.03931,0.64156 -0.73323,0.52701 -0.73323,1.32897 0,0.77908 0.59575,1.37482 0.59574,0.57283 1.48937,0.57283 1.03111,0 1.94765,-0.6874 0.68739,-0.5041 0.89362,-1.23735 0.13741,-0.48114 0.13741,-1.83305 z m 7.28752,-7.37811 h 3.50576 v 2.08513 q 0.68738,-1.07695 1.83305,-1.74143 1.16861,-0.66449 2.58923,-0.66449 2.47464,0 4.19313,1.94765 1.71853,1.92473 1.71853,5.38464 0,3.55159 -1.74141,5.52213 -1.74144,1.97057 -4.19316,1.97057 -1.19151,0 -2.15387,-0.45827 -0.93943,-0.48119 -1.99347,-1.60394 v 7.14898 h -3.75779 z m 3.71197,6.85112 q 0,2.38298 0.93945,3.52865 0.96235,1.14569 2.31427,1.14569 1.32898,0 2.17674,-1.05404 0.87072,-1.05399 0.87072,-3.43699 0,-2.2226 -0.89361,-3.29954 -0.89363,-1.09986 -2.22263,-1.09986 -1.37478,0 -2.29133,1.07694 -0.89361,1.05403 -0.89361,3.13915 z m 22.44008,7.33228 v -2.13094 q -0.77907,1.14566 -2.03931,1.81016 -1.26021,0.64158 -2.65794,0.64158 -1.42065,0 -2.56631,-0.61869 -1.12274,-0.64154 -1.64977,-1.76433 -0.50409,-1.14565 -0.50409,-3.13912 v -8.98206 h 3.7578 v 6.50741 q 0,3.00167 0.20622,3.68907 0.20624,0.66447 0.75615,1.05402 0.54992,0.3895 1.39773,0.3895 0.96235,0 1.71849,-0.527 0.75614,-0.527 1.03112,-1.30606 0.29787,-0.77906 0.29787,-3.82654 v -5.9804 h 3.73487 v 14.1834 z m 20.28622,0 h -3.75781 v -7.24064 q 0,-2.29133 -0.25204,-2.95583 -0.22915,-0.68741 -0.77907,-1.05401 -0.527,-0.38953 -1.28314,-0.38953 -0.98528,0 -1.76432,0.54993 -0.77905,0.527 -1.07695,1.42063 -0.27496,0.87071 -0.27496,3.2537 v 6.41575 h -3.73485 v -14.1834 h 3.48282 v 2.08513 q 1.85598,-2.40592 4.67432,-2.40592 1.23733,0 2.26843,0.45828 1.03111,0.43537 1.55811,1.14566 0.52702,0.68741 0.73323,1.58105 0.20623,0.87069 0.20623,2.49754 z m 10.31887,-14.1834 v 2.97875 h -2.56631 v 5.72834 q 0,1.74143 0.0687,2.03932 0.0688,0.27494 0.32079,0.45826 0.27496,0.18329 0.64159,0.18329 0.527,0 1.51229,-0.36661 l 0.32077,2.93292 q -1.30606,0.54993 -2.95582,0.54993 -1.03112,0 -1.85598,-0.34371 -0.80198,-0.3437 -1.1915,-0.87072 -0.36663,-0.54993 -0.50411,-1.46645 -0.13741,-0.66448 -0.13741,-2.65796 v -6.18661 h -1.7185 v -2.97875 h 1.7185 v -2.81833 l 3.78073,-2.1997 v 5.01803 z m 5.39867,4.33065 -3.4141,-0.61868 q 0.59575,-2.06221 1.99346,-3.04747 1.39773,-0.98529 4.17024,-0.98529 2.49757,0 3.7349,0.59576 1.23733,0.59575 1.71849,1.51228 0.5041,0.91653 0.5041,3.34535 l -0.0229,4.39937 q 0,1.85599 0.16037,2.7496 0.18331,0.89364 0.68741,1.90183 h -3.71197 q -0.1604,-0.36661 -0.36661,-1.09984 -0.0917,-0.34372 -0.13739,-0.45828 -0.9624,0.93946 -2.06223,1.42065 -1.07693,0.45827 -2.33717,0.45827 -2.17675,0 -3.437,-1.1915 -1.26023,-1.19152 -1.26023,-3.00167 0,-1.2144 0.57282,-2.15386 0.57284,-0.93943 1.60394,-1.42062 1.03112,-0.50411 2.97874,-0.89362 2.63503,-0.48119 3.64325,-0.91653 v -0.36663 q 0,-1.09983 -0.52703,-1.55811 -0.527,-0.45827 -2.01636,-0.45827 -1.0082,0 -1.58103,0.41246 -0.54993,0.38951 -0.89363,1.3748 z m 5.01804,3.04746 q -0.71033,0.22914 -2.29134,0.57286 -1.55812,0.32079 -2.03931,0.64156 -0.73323,0.52701 -0.73323,1.32897 0,0.77908 0.59576,1.37482 0.59576,0.57283 1.48938,0.57283 1.03108,0 1.94764,-0.6874 0.68741,-0.5041 0.89361,-1.23735 0.13741,-0.48114 0.13741,-1.83305 z m 17.79861,-3.04746 -3.4141,-0.61868 q 0.59575,-2.06221 1.99347,-3.04747 1.39772,-0.98529 4.17021,-0.98529 2.49759,0 3.73491,0.59576 1.23734,0.59575 1.71852,1.51228 0.50408,0.91653 0.50408,3.34535 l -0.0229,4.39937 q 0,1.85599 0.16038,2.7496 0.18331,0.89364 0.68741,1.90183 h -3.71197 q -0.1604,-0.36661 -0.36662,-1.09984 -0.0917,-0.34372 -0.13742,-0.45828 -0.96235,0.93946 -2.06219,1.42065 -1.07693,0.45827 -2.33717,0.45827 -2.17677,0 -3.43702,-1.1915 -1.26022,-1.19152 -1.26022,-3.00167 0,-1.2144 0.57282,-2.15386 0.57285,-0.93943 1.60395,-1.42062 1.0311,-0.50411 2.97874,-0.89362 2.63504,-0.48119 3.64323,-0.91653 v -0.36663 q 0,-1.09983 -0.52701,-1.55811 -0.527,-0.45827 -2.01639,-0.45827 -1.00818,0 -1.58101,0.41246 -0.54993,0.38951 -0.89364,1.3748 z m 5.01804,3.04746 q -0.71032,0.22914 -2.29135,0.57286 -1.55809,0.32079 -2.03929,0.64156 -0.73323,0.52701 -0.73323,1.32897 0,0.77908 0.59575,1.37482 0.59575,0.57283 1.48937,0.57283 1.03111,0 1.94763,-0.6874 0.68742,-0.5041 0.89365,-1.23735 0.1374,-0.48114 0.1374,-1.83305 z m 18.8068,-4.83472 h -3.73489 v -2.70378 q 0,-1.62685 0.27495,-2.5663 0.29788,-0.93947 1.05403,-1.67269 0.77906,-0.75612 1.99346,-1.19149 l 0.73323,1.55811 q -1.12274,0.3666 -1.62684,1.03111 -0.48119,0.66448 -0.50408,1.78724 h 1.81014 z m 3.65999,11.64001 V 334.8659 h 3.75781 v 10.40269 l 4.39937,-4.99512 h 4.60562 l -4.83474,5.17842 5.17842,9.00498 h -4.03275 l -3.57449,-6.36991 -1.74143,1.83307 v 4.53684 z m 15.26137,-19.88883 h 3.73489 v 2.68085 q 0,1.62686 -0.27496,2.58923 -0.27495,0.93943 -1.05402,1.69561 -0.77906,0.73322 -1.99347,1.16858 l -0.73321,-1.55812 q 1.14567,-0.36664 1.62684,-1.0082 0.48117,-0.66448 0.5041,-1.81017 h -1.81017 z m 11.99625,5.70543 h 3.98691 l 3.41412,10.05901 3.29953,-10.05901 h 3.89528 l -5.01805,13.65639 -0.8936,2.47464 q -0.48121,1.23732 -0.93946,1.87891 -0.45827,0.66448 -1.03109,1.05401 -0.57285,0.41244 -1.42064,0.64157 -0.8478,0.22914 -1.92473,0.22914 -1.07695,0 -2.13095,-0.22914 l -0.32079,-2.93292 q 0.87071,0.18332 1.58103,0.18332 1.30606,0 1.92473,-0.77905 0.64158,-0.75614 0.98526,-1.94764 z" />
  <path
     style="fill:#d9d9d9;fill-rule:nonzero;stroke-width:1.46645796"
     inkscape:connector-curvature="0"
     id="path69"
     d="m 156.75945,376.13294 -2.01638,-1.5581 q 0.96236,-1.07693 1.99346,-2.06222 0.41245,-0.41244 0.52703,-0.5041 -0.34371,-0.0687 -1.90183,-0.45825 -1.14567,-0.27498 -1.51229,-0.41245 l 0.80198,-2.33716 q 1.74139,0.7103 3.11622,1.5581 -0.32078,-2.17677 -0.32078,-3.55158 h 2.38298 q 0,0.96236 -0.36662,3.57448 0.27496,-0.11452 1.14568,-0.52699 1.2144,-0.54992 2.2226,-0.93945 l 0.71032,2.42882 q -1.48937,0.34371 -3.43701,0.66448 l 1.60394,1.78725 q 0.48117,0.54993 0.75613,0.89363 l -2.03928,1.35188 -1.81017,-2.97873 q -0.80196,1.44353 -1.85598,3.07039 z m 7.82853,10.58601 v -2.93293 l 5.31591,-6.09496 q 1.30607,-1.48938 1.92473,-2.13095 -0.64159,0.0457 -1.7185,0.0687 l -4.99512,0.0229 v -3.11623 h 11.70874 v 2.65797 l -5.40757,6.25536 -1.92472,2.06221 q 1.58102,-0.0917 1.94764,-0.0917 h 5.82001 v 3.29954 z m 21.96781,-10.90679 v -3.43702 h 13.6793 v 3.43702 z m 0,5.93455 v -3.4599 h 13.6793 v 3.4599 z m 36.2721,1.48939 v 3.48285 h -13.1523 q 0.20624,-1.97057 1.26026,-3.7349 1.07692,-1.78725 4.23897,-4.69724 2.54341,-2.38299 3.11622,-3.20789 0.77906,-1.1686 0.77906,-2.31425 0,-1.23734 -0.68741,-1.90182 -0.66446,-0.68739 -1.85597,-0.68739 -1.1686,0 -1.87889,0.7103 -0.68743,0.68741 -0.80199,2.33718 l -3.73488,-0.36662 q 0.34368,-3.09331 2.08512,-4.44521 1.76432,-1.35187 4.42228,-1.35187 2.8871,0 4.53687,1.55811 1.67266,1.55811 1.67266,3.89527 0,1.30605 -0.48117,2.52049 -0.45827,1.19146 -1.48938,2.49755 -0.68739,0.8707 -2.47465,2.49756 -1.76433,1.62685 -2.24552,2.17676 -0.45825,0.52702 -0.75611,1.03112 z m 2.59028,-1.5581 3.73488,-0.38955 q 0.1604,1.28315 0.93946,2.01637 0.80196,0.73324 1.83309,0.73324 1.16857,0 1.97053,-0.93944 0.82489,-0.96237 0.82489,-2.88709 0,-1.81017 -0.80198,-2.70379 -0.80196,-0.89363 -2.10803,-0.89363 -1.60394,0 -2.88708,1.42063 l -3.04748,-0.43534 1.92473,-10.19648 h 9.92149 v 3.50576 h -7.08023 l -0.59575,3.32244 q 1.26023,-0.61865 2.5663,-0.61865 2.49754,0 4.23896,1.83306 1.74142,1.81016 1.74142,4.69726 0,2.42881 -1.39771,4.30771 -1.92472,2.61215 -5.3159,2.61215 -2.70378,0 -4.4223,-1.46648 -1.6956,-1.46644 -2.03929,-3.91817 z" />
</svg>
